# xmcd CD database file
#
# Track frame offsets:
#	150
#	20090
#	37067
#	54067
#	66375
#	78737
#	100525
#	120737
#	141415
#	160657
#	182857
#	202102
#	215865
#	237230
#	254572
#	272042
#
# Disc length: 3884 seconds
#
# Revision: 0
# Processed by: cddbd v1.5.1PL0 Copyright (c) Steve Scherf et al.
# Submitted via: CDex 1.50beta8
#
DISCID=f60f2a10
DTITLE=Various Artist - 美ら歌よ4〜沖縄ベスト・ソング・コレクション〜
DYEAR=2005
DGENRE=Country
TTITLE0=夏川りみ - 満天の星
TTITLE1=喜納昌吉 - 花〜すべての人の心に花を〜
TTITLE2=沢田聖子 - ナンクルナイサ
TTITLE3=Kiroro - てぃんさぐぬ花
TTITLE4=知名定男 - バイバイ沖縄
TTITLE5=古謝美佐子 - 天架きる橋
TTITLE6=大工哲弘＆大工苗子 - 十九の春
TTITLE7=普天間かおり - 童神 （わらびがみ）
TTITLE8=桑江知子 - 月詠み間 （ちちゆみま）
TTITLE9=パーシャクラブ - 海の彼方
TTITLE10=yamako - 島の風景
TTITLE11=アコースティックM - 花ぬ風車 （はなぬかじまやー）
TTITLE12=新良幸人 - 月ぬ美しゃ （つきぬかいしゃ）
TTITLE13=宮永英一 - 琉球三國志
TTITLE14=内里美香 - 川
TTITLE15=ALBERTO (ディアマンテス) - Cancion de isla (Shima Uta)
EXTD=YEAR: 2005
EXTT0=
EXTT1=
EXTT2=
EXTT3=
EXTT4=
EXTT5=
EXTT6=
EXTT7=
EXTT8=
EXTT9=
EXTT10=
EXTT11=
EXTT12=
EXTT13=
EXTT14=
EXTT15=
PLAYORDER=
